<svg width="44" height="771" viewBox="0 0 44 771" fill="none" xmlns="http://www.w3.org/2000/svg">
<path d="M43.0581 432L1.52057 432" stroke="white" stroke-width="1.7" stroke-linecap="round"/>
<path d="M26.3193 448.119L1.5208 448.119" stroke="white" stroke-width="1.7" stroke-linecap="round"/>
<path d="M26.3193 464.238L1.5208 464.238" stroke="white" stroke-width="1.7" stroke-linecap="round"/>
<path d="M26.3193 480.357L1.5208 480.357" stroke="white" stroke-width="1.7" stroke-linecap="round"/>
<path d="M26.3193 496.476L1.5208 496.476" stroke="white" stroke-width="1.7" stroke-linecap="round"/>
<path d="M26.3193 512.595L1.5208 512.595" stroke="white" stroke-width="1.7" stroke-linecap="round"/>
<path d="M26.3193 528.714L1.5208 528.714" stroke="white" stroke-width="1.7" stroke-linecap="round"/>
<path d="M43.0581 544.833L1.52057 544.833" stroke="white" stroke-width="1.7" stroke-linecap="round"/>
<path d="M26.3193 560.953L1.5208 560.953" stroke="white" stroke-width="1.7" stroke-linecap="round"/>
<path d="M26.3193 577.072L1.5208 577.072" stroke="white" stroke-width="1.7" stroke-linecap="round"/>
<path d="M26.3193 593.191L1.5208 593.191" stroke="white" stroke-width="1.7" stroke-linecap="round"/>
<path d="M26.3193 609.31L1.5208 609.31" stroke="white" stroke-width="1.7" stroke-linecap="round"/>
<path d="M26.3193 625.429L1.5208 625.429" stroke="white" stroke-width="1.7" stroke-linecap="round"/>
<path d="M26.3193 641.547L1.5208 641.547" stroke="white" stroke-width="1.7" stroke-linecap="round"/>
<path d="M43.0581 657.667L1.52057 657.667" stroke="white" stroke-width="1.7" stroke-linecap="round"/>
<path d="M26.3193 673.786L1.5208 673.786" stroke="white" stroke-width="1.7" stroke-linecap="round"/>
<path d="M26.3193 689.905L1.5208 689.905" stroke="white" stroke-width="1.7" stroke-linecap="round"/>
<path d="M26.3193 706.024L1.5208 706.024" stroke="white" stroke-width="1.7" stroke-linecap="round"/>
<path d="M26.3193 722.143L1.5208 722.143" stroke="white" stroke-width="1.7" stroke-linecap="round"/>
<path d="M26.3188 738.262L1.52032 738.262" stroke="white" stroke-width="1.7" stroke-linecap="round"/>
<path d="M26.3188 754.381L1.52032 754.381" stroke="white" stroke-width="1.7" stroke-linecap="round"/>
<path d="M43.0581 770.5L1.52057 770.5" stroke="white" stroke-width="1.7" stroke-linecap="round"/>
<path d="M43.0581 45.1431L1.52057 45.1431" stroke="white" stroke-width="1.7" stroke-linecap="round"/>
<path d="M26.3193 61.262L1.5208 61.262" stroke="white" stroke-width="1.7" stroke-linecap="round"/>
<path d="M26.3193 77.381L1.5208 77.381" stroke="white" stroke-width="1.7" stroke-linecap="round"/>
<path d="M26.3193 93.5002L1.5208 93.5002" stroke="white" stroke-width="1.7" stroke-linecap="round"/>
<path d="M26.3193 109.619L1.5208 109.619" stroke="white" stroke-width="1.7" stroke-linecap="round"/>
<path d="M26.3193 125.738L1.5208 125.738" stroke="white" stroke-width="1.7" stroke-linecap="round"/>
<path d="M26.3193 141.857L1.5208 141.857" stroke="white" stroke-width="1.7" stroke-linecap="round"/>
<path d="M26.3193 157.976L1.5208 157.976" stroke="white" stroke-width="1.7" stroke-linecap="round"/>
<path d="M26.3193 174.095L1.5208 174.095" stroke="white" stroke-width="1.7" stroke-linecap="round"/>
<path d="M26.3193 190.214L1.5208 190.214" stroke="white" stroke-width="1.7" stroke-linecap="round"/>
<path d="M43.0581 206.334L1.52057 206.334" stroke="white" stroke-width="1.7" stroke-linecap="round"/>
<path d="M26.3193 222.453L1.5208 222.453" stroke="white" stroke-width="1.7" stroke-linecap="round"/>
<path d="M26.3193 238.572L1.5208 238.572" stroke="white" stroke-width="1.7" stroke-linecap="round"/>
<path d="M26.3193 254.691L1.5208 254.691" stroke="white" stroke-width="1.7" stroke-linecap="round"/>
<path d="M26.3193 270.81L1.5208 270.81" stroke="white" stroke-width="1.7" stroke-linecap="round"/>
<path d="M26.3193 286.929L1.5208 286.929" stroke="white" stroke-width="1.7" stroke-linecap="round"/>
<path d="M26.3193 303.048L1.5208 303.048" stroke="white" stroke-width="1.7" stroke-linecap="round"/>
<path d="M43.0581 319.167L1.52057 319.167" stroke="white" stroke-width="1.7" stroke-linecap="round"/>
<path d="M26.3193 335.286L1.5208 335.286" stroke="white" stroke-width="1.7" stroke-linecap="round"/>
<path d="M26.3193 351.405L1.5208 351.405" stroke="white" stroke-width="1.7" stroke-linecap="round"/>
<path d="M26.3193 367.524L1.5208 367.524" stroke="white" stroke-width="1.7" stroke-linecap="round"/>
<path d="M26.3193 383.643L1.5208 383.643" stroke="white" stroke-width="1.7" stroke-linecap="round"/>
<path d="M26.3193 399.762L1.5208 399.762" stroke="white" stroke-width="1.7" stroke-linecap="round"/>
<path d="M26.3193 415.881L1.5208 415.881" stroke="white" stroke-width="1.7" stroke-linecap="round"/>
<path d="M43.0581 432L1.52057 432" stroke="white" stroke-width="1.7" stroke-linecap="round"/>
<path d="M26.3188 12.9052L1.52032 12.9052" stroke="white" stroke-width="1.7" stroke-linecap="round"/>
<path d="M26.3188 29.0241L1.52032 29.0241" stroke="white" stroke-width="1.7" stroke-linecap="round"/>
<path d="M43.0581 45.1431L1.52057 45.1431" stroke="white" stroke-width="1.7" stroke-linecap="round"/>
<path d="M2.06006 770.501L1.02926 -0.00105237" stroke="white" stroke-width="1.7"/>
</svg>
